<svg xmlns="http://www.w3.org/2000/svg" width="20" height="20" viewBox="0 0 20 20">
    <g fill="#178195">
        <path d="M6.4.8H.8c-.442 0-.8.358-.8.8v5.6c0 .442.358.8.8.8h5.6c.442 0 .8-.358.8-.8V1.6c0-.442-.358-.8-.8-.8z" transform="translate(.2 .2)"/>
        <path d="M14.523.217c-.289-.29-.757-.29-1.046 0l-3.66 3.66c-.29.289-.29.757 0 1.046l3.66 3.66c.289.29.757.29 1.046 0l3.66-3.66c.29-.289.29-.757 0-1.046l-3.66-3.66z" opacity=".302" transform="translate(.2 .2)"/>
        <path d="M16.8 11.2h-5.6c-.442 0-.8.358-.8.8v5.6c0 .442.358.8.8.8h5.6c.442 0 .8-.358.8-.8V12c0-.442-.358-.8-.8-.8zM6.4 11.2H.8c-.442 0-.8.358-.8.8v5.6c0 .442.358.8.8.8h5.6c.442 0 .8-.358.8-.8V12c0-.442-.358-.8-.8-.8z" transform="translate(.2 .2)"/>
    </g>
</svg>
