<?xml version="1.0"?>
<svg xmlns="http://www.w3.org/2000/svg" xmlns:xlink="http://www.w3.org/1999/xlink" xmlns:svgjs="http://svgjs.com/svgjs" version="1.1" width="512" height="512" x="0" y="0" viewBox="0 0 512 512" style="enable-background:new 0 0 512 512" xml:space="preserve" class=""><g><g xmlns="http://www.w3.org/2000/svg"><g><g><g><g><g id="XMLID_1078_"><g id="XMLID_1079_"><g id="XMLID_1080_"><g id="XMLID_1081_"><g id="XMLID_1082_"><g id="XMLID_1083_"><g id="XMLID_1084_"><g id="XMLID_1085_"><g id="XMLID_1086_"><g id="XMLID_1087_"><g id="XMLID_1187_"><g id="XMLID_1188_"><g id="XMLID_1189_"><g id="XMLID_1190_"><g><path d="m512 256c0 66.72-25.53 127.47-67.34 173.04-46.8 50.99-114 23.062-188.66 23.062s-141.86 27.928-188.66-23.062c-41.81-45.57-67.34-106.32-67.34-173.04 0-141.38 114.62-256 256-256s256 114.62 256 256z" fill="#51489a" data-original="#66edff" style="" class=""/></g></g></g></g></g></g></g></g></g></g></g></g></g></g></g></g></g></g></g><path d="m256 452.102c74.66 0 141.86 27.928 188.66-23.062 41.81-45.57 67.34-106.32 67.34-173.04 0-10.218-.617-20.29-1.781-30.195l-167.148-167.673-181.888 145.724 32.27 32.258c4.036 11.706 20.663 19.178 20.663 19.178l6.194 103.896-152.97 69.852c46.8 50.99 114 23.062 188.66 23.062z" fill="#3c347c" data-original="#2aafdd" style="" class=""/><g><path d="m199.97 243.973h112.06v118.84h-112.06z" fill="#eaa678" data-original="#eaa678" style="" class=""/><path d="m256 243.976h56.03v118.84h-56.03z" fill="#d38c5b" data-original="#d38c5b" style="" class=""/><path d="m199.97 318.116h112.06v118.84h-112.06z" fill="#ffc397" data-original="#ffc397" style="" class=""/><path d="m256 318.119h56.03v118.84h-56.03z" fill="#eaa678" data-original="#eaa678" style="" class=""/><path d="m444.66 377.06v51.98c-46.8 50.99-114 82.96-188.66 82.96s-141.86-31.97-188.66-82.96v-51.98c0-32.55 26.39-58.94 58.94-58.94h73.69v11.22c0 30.68 24.67 55.65 55.34 56.03h.7c30.89 0 56.02-25.04 56.02-56.03v-11.22h73.69c32.55 0 58.94 26.39 58.94 58.94z" fill="#a49b8c" data-original="#ff9d00" style="" class=""/><path d="m444.66 377.06v51.98c-46.8 50.99-114 82.96-188.66 82.96v-126.63h.01c30.89 0 56.02-25.04 56.02-56.03v-11.22h73.69c32.55 0 58.94 26.39 58.94 58.94z" fill="#8a7f76" data-original="#ff7300" style="" class=""/></g><path d="m342.872 142.221c-3.67-55.715-48.737-76.305-86.872-76.305s-83.202 20.59-86.872 76.305c-9.861 1.907-16.867 14.842-15.764 25.3l1.69 23.799c1.157 10.982 10.81 18.999 21.449 17.806l1.835-.199c12.906 53.272 55.968 64.618 77.661 68.044 21.693-3.426 55.869-9.527 77.661-68.044l1.835.199c10.639 1.193 20.292-6.824 21.449-17.806l1.69-23.799c1.104-10.458-5.901-23.392-15.762-25.3z" fill="#ffc397" data-original="#ffc397" style="" class=""/><path d="m358.635 167.521-1.69 23.799c-1.157 10.982-10.81 18.999-21.449 17.806l-1.835-.199c-7.448 19.976-16.333 33.85-25.67 43.585-18.005 18.783-37.701 22.199-51.991 24.459v-211.055c38.135 0 83.202 20.59 86.872 76.305 9.861 1.908 16.866 14.842 15.763 25.3z" fill="#eaa678" data-original="#eaa678" style="" class=""/><path d="m343.071 58.132c-38.162-33.392-140.029-16.825-180.574-30.34 0 0-10.005 43.288 6.717 71.003-13.984 28.663-2.037 59.922-2.037 59.922l18.783 14.359 13.685-53.089c6.839 1.456 14.796 1.882 24.044 1.001 106.43-10.136 101.643 52.088 101.643 52.088l19.428-14.359s38.855-65.109-1.689-100.585z" fill="#4a4343" data-original="#3e28e0" style="" class=""/><path d="m344.76 158.72-19.43 14.36s3.76-48.82-69.33-52.94v-84.51c34.51 1.79 68.41 6.18 87.07 22.5 40.55 35.48 1.69 100.59 1.69 100.59z" fill="#423838" data-original="#1a0099" style="" class=""/></g></g></svg>
