<svg xmlns="http://www.w3.org/2000/svg" width="19" height="19" viewBox="0 0 19 19">
    <g fill="#AD69FF">
        <path d="M12 7.253c-1.767 0-3.2-1.45-3.2-3.24v-.72c0-1.789 1.433-3.24 3.2-3.24 1.767 0 3.2 1.451 3.2 3.24v.72c0 1.79-1.433 3.24-3.2 3.24z" transform="translate(.4 .2)"/>
        <path d="M4.8 11.253c-1.767 0-3.2-1.273-3.2-2.844v-.711c0-1.571 1.433-2.845 3.2-2.845 1.767 0 3.2 1.274 3.2 2.845v.71c0 1.572-1.433 2.845-3.2 2.845z" opacity=".305" transform="translate(.4 .2)"/>
        <path d="M13.995 8.053H10.39c-.247 0-.488.026-.72.075v.664c0 .995-.327 1.909-.87 2.648 1.782.798 3.032 2.62 3.032 4.736v1.477h5.047c.398 0 .721-.33.721-.738v-5.17c0-2.038-1.614-3.692-3.605-3.692z" opacity=".298" transform="translate(.4 .2)"/>
        <path d="M9.657 16.853H.743c-.41 0-.743-.307-.743-.685v-.686c0-1.893 1.663-3.429 3.714-3.429h2.972c2.05 0 3.714 1.536 3.714 3.429v.686c0 .378-.333.685-.743.685z" transform="translate(.4 .2)"/>
    </g>
</svg>
