<svg id="Layer_1" enable-background="new 0 0 512 512" height="512" viewBox="0 0 512 512" width="512" xmlns="http://www.w3.org/2000/svg"><g><g><g><g><g><g id="XMLID_2215_"><g id="XMLID_2216_"><g id="XMLID_2217_"><g id="XMLID_2218_"><g id="XMLID_2219_"><g id="XMLID_2220_"><g id="XMLID_2221_"><g id="XMLID_2222_"><g id="XMLID_2223_"><g id="XMLID_2224_"><g id="XMLID_2225_"><g id="XMLID_2596_"><g id="XMLID_2597_"><g id="XMLID_2598_"><g><path d="m512 256c0 66.72-25.52 127.48-67.34 173.04-43.76 47.69-105.38 22.39-174.27 18.92-4.76-.24-9.56-.38-14.39-.38-74.67 0-141.87 32.45-188.66-18.54-41.82-45.56-67.34-106.32-67.34-173.04 0-141.38 114.62-256 256-256 127.66 0 233.5 93.45 252.83 215.67 2.09 13.14 3.17 26.61 3.17 40.33z" fill="#66edff"/></g></g></g></g></g></g></g></g></g></g></g></g></g></g></g></g></g></g></g><path d="m512 256c0 66.72-25.52 127.48-67.34 173.04-43.76 47.69-105.38 22.39-174.27 18.92l-70.42-70.42 17.6-37.68-93.73-92.26 22.48-33.57-42.93-42.73 132.26-41.6 20.35-111 42.63 42.82 33.67-22.38 176.53 176.53c2.09 13.14 3.17 26.61 3.17 40.33z" fill="#2aafdd"/><path d="m256 18.696 31.862 33.695 44.441-13.25 10.745 45.112 45.113 10.746-13.251 44.441 33.696 31.862-33.696 31.862 13.251 44.441-45.113 10.745-10.745 45.113-44.441-13.251-31.862 33.696-31.862-33.696-44.441 13.251-10.745-45.113-45.113-10.745 13.251-44.441-33.696-31.862 33.696-31.862-13.251-44.441 45.113-10.746 10.745-45.112 44.441 13.25z" fill="#ff7300"/><path d="m374.91 203.16 13.25 44.44-45.11 10.75-10.75 45.11-44.44-13.25-31.86 33.7v-305.21l31.86 33.69 44.44-13.25 10.75 45.11 45.11 10.75-13.25 44.44 33.7 31.86z" fill="#ed4a0a"/><path d="m199.97 258.699h112.06v118.84h-112.06z" fill="#eaa678"/><path d="m256 258.702h56.03v118.84h-56.03z" fill="#d38c5b"/><path d="m199.97 328.738h112.06v118.84h-112.06z" fill="#ffc397"/><path d="m256 328.741h56.03v118.84h-56.03z" fill="#eaa678"/><path d="m444.66 387.68v41.36c-19.88 21.67-43.45 39.9-69.7 53.7-35.54 18.68-76.02 29.26-118.96 29.26s-83.42-10.58-118.96-29.26c-26.25-13.8-49.82-32.03-69.7-53.7v-41.36c0-32.55 26.39-58.94 58.94-58.94h73.69v11.22c0 30.68 24.67 45.03 55.34 45.41h.7c30.89 0 56.02-14.42 56.02-45.41v-11.22h73.69c32.55 0 58.94 26.39 58.94 58.94z" fill="#3e28e0"/><path d="m444.66 387.68v41.36c-19.88 21.67-43.45 39.9-69.7 53.7-35.54 18.68-76.02 29.26-118.96 29.26v-126.63h.01c30.89 0 56.02-14.42 56.02-45.41v-11.22h73.69c32.55 0 58.94 26.39 58.94 58.94z" fill="#1a0099"/><path d="m374.96 427.54v55.2c-35.54 18.68-76.02 29.26-118.96 29.26s-83.42-10.58-118.96-29.26v-55.2z" fill="#ffe45c"/><path d="m374.96 427.54v55.2c-35.54 18.68-76.02 29.26-118.96 29.26v-84.46z" fill="#f9be06"/><path d="m344.998 154.56c-3.76-57.078-49.93-78.173-88.998-78.173s-85.238 21.094-88.998 78.173c-10.103 1.954-17.279 15.205-16.15 25.919l1.732 24.382c1.185 11.251 11.075 19.464 21.974 18.242l1.88-.204c6.619 53.856 57.338 66.2 79.562 69.709 22.224-3.51 57.236-9.76 79.562-69.709l1.88.204c10.899 1.222 20.789-6.991 21.974-18.242l1.732-24.382c1.129-10.714-6.048-23.965-16.15-25.919z" fill="#ffc397"/><path d="m361.15 180.48-1.73 24.38c-1.19 11.25-11.08 19.46-21.98 18.24l-1.88-.2c-22.32 59.95-57.34 66.2-79.56 69.71v-216.22c39.07 0 85.24 21.09 89 78.17 3.37.65 6.41 2.56 8.93 5.21 5.04 5.3 7.97 13.57 7.22 20.71z" fill="#eaa678"/><path d="m276.445 73.17h-40.89c-43 0-88.377 38.378-81.746 80.864l13.193 18.245 11.206 13.965 15.767-66.898 20.381-.339 7.796-19.569 18.844 9.335 15.004-13.079 15.004 13.078 18.844-9.335 7.796 19.569 20.381.339 15.767 66.898 11.206-13.965 13.033-18.245c6.631-42.485-38.586-80.863-81.586-80.863z" fill="#ff7300"/><path d="m358.03 154.03-4.1 5.74-8.93 12.51-11.21 13.96-15.77-66.89-20.38-.34-7.79-19.57-18.85 9.33-15-13.08v-22.52h20.45c43 0 88.21 38.38 81.58 80.86z" fill="#ed4a0a"/><g><g><path d="m279.665 172.695h-47.33l7.117-30h33.096z" fill="#a5a5a5"/></g><g><path d="m279.67 172.699h-23.67v-30h16.55z" fill="#878787"/></g><g><path d="m215.044 202.088h-19.701c-13.48 0-24.408-10.928-24.408-24.408v-34.985h68.517v34.985c0 13.48-10.928 24.408-24.408 24.408z" fill="#fff"/><path d="m316.657 202.088h-19.701c-13.48 0-24.408-10.928-24.408-24.408v-34.985h68.517v34.985c0 13.48-10.928 24.408-24.408 24.408z" fill="#d3d3d3"/></g></g></g></svg>